<?xml version="1.0" encoding="UTF-8"?>
<svg id="_レイヤー_2" data-name="レイヤー 2" xmlns="http://www.w3.org/2000/svg" viewBox="0 0 170.53 31.28">
  <defs>
    <style>
      .cls-1 {
        fill: #040000;
        stroke-width: 0px;
      }
    </style>
  </defs>
  <g id="_レイヤー_1-2" data-name="レイヤー 1">
    <path class="cls-1" d="M5.33,30.6c-2.48,0-3.96.04-5.33.11.22-1.26.29-2.84.29-5.26v-5.03c.06-.11.08-.21.11-.32.06-2.55,4.06-2.55,5.06-4.55C3.46,14.54.46,13.54.29,10.55v-4.11C.29,3.92.22,2.38,0,.65h7.85c-.25,1.87-.29,2.88-.29,5.69v4.22c0,.1,0,.2,0,.31.89,3.68,6.89,2.68,6.89,4.68,1,3-6,1-6.89,5.02,0,.1,0,.19,0,.29v3.34h8.71c3.06,0,4.28-.04,5.98-.25v6.91c-1.33-.18-3.1-.25-5.98-.25H5.33Z"/>
    <path class="cls-1" d="M47.26,30.85c-1.55-.18-2.84-.25-5.94-.25h-11.34c-2.74,0-3.74.04-5.29.11.22-1.44.29-2.77.29-5.26v-4.48c0-.1,0-.2,0-.3,2.47-3.12,7.47-2.12,7.47-4.12,1-4-6-1-7.47-5.65,0-.1,0-.21,0-.31v-4.79c0-2.23-.07-3.49-.29-5.26,1.48.07,2.48.11,5.29.11h11.48c2.45,0,3.67-.07,5.36-.25v6.73c-1.66-.18-2.95-.25-5.36-.25h-9.36v3.92c.34.75.34,1.75.34,1.75,7,1,16-3,16,3,1,7-11-1-16.3,5.16-.02.21-.03.43-.04.64v3.02h9.29c2.74,0,4.32-.07,5.87-.25v6.73Z"/>
    <path class="cls-1" d="M68.71,19.65c-1.26-.11-2.26-.11-3.26-.11,2-2,7-2,7-3,2-3-3-2-5-3,4,0,8-1,12,0,5,2-2,3-2.48,6.87-.02.1-.03.2-.04.3v1.71c0,2.56.04,3.71.25,5.36-1.98,1.26-2.95,1.73-4.57,2.27-2.34.79-4.97,1.22-7.63,1.22-4.57,0-8.14-1.26-10.69-3.85-1.56-1.56-2.73-3.63-3.44-6.04-.04-.15-.09-.3-.13-.46.73-4.39,5.73-3.39,7.73-5.39-3-1-7-1-7.93-4.58.01-.08.03-.16.05-.25,1.63-6.67,6.81-10.72,14.25-10.72,4.5,0,7.92,1.4,10.29,4.28.97,1.12,1.55,2.2,2.12,3.92l-7.34,1.69c-.4-1.3-.83-1.98-1.62-2.59-.94-.76-2.12-1.12-3.64-1.12-3.13,0-5.29,1.54-6.36,4.42-.06.15-.11.31-.14.47,2.3,3.46,5.3,3.46,8.3,4.46-2,3-7,1-8.1,5.28.05.13.1.26.16.38.33.74.73,1.38,1.21,1.91,1.15,1.26,2.92,1.94,5.18,1.94,1.91,0,3.46-.4,5.22-1.3v-2.95q.33-1.27-1-1.16h-.41Z"/>
    <path class="cls-1" d="M101.62,30.6c-.29-1.73-.5-2.66-.86-3.89l-.97-3.06h-10.26l-.97,3.06c-.47,1.44-.72,2.56-.9,3.89h-8.42c.54-1.08.86-1.94,1.73-4.39l1.8-5.03.11-.29c2.58-2.34,6.58-4.34,10.58-4.34,0-4-7-1-6.95-5.78l.11-.31,2.12-5.92c.65-1.76.97-2.84,1.15-3.89h9.39c.25,1.04.5,1.98,1.22,3.89l2.25,6.23c.04.1.08.21.12.31,2.58,2.47,6.58,2.47,9.58,5.47-2,1-6,0-6.05,4.34l.11.29,1.81,5.03c.68,1.91,1.26,3.38,1.73,4.39h-8.42ZM94.6,6.8l-1.16,3.74c-.03.11-.07.22-.1.33.11,3.68,5.11,2.68,7.11,4.68-1,1-3,2-5,2,3,0,7,0,10-1-2-3-8-2-9.56-5.68-.04-.11-.07-.22-.11-.33l-1.18-3.74Z"/>
    <path class="cls-1" d="M131.77,11.09c-.03-.09-.05-.18-.07-.27s-.04-.18-.07-.26c-.77-2.92-2.64-4.36-5.56-4.36s-5.11,1.59-6.18,4.47c-.06.15-.11.31-.14.47.71,3.42,5.71,2.42,5.71,4.42,1,3-5,1-5.52,4.94.05.15.11.3.17.45,1.15,2.61,3.28,4.08,6.15,4.08,1.98,0,3.67-.83,4.72-2.27.38-.54.62-1.02.8-1.68.04-.13.07-.27.11-.42,2.58-2.11,4.58.89,7.4.08.16.02.26.04.26.04-.68,3.06-1.48,4.82-2.99,6.59-2.23,2.56-5.72,3.92-10.08,3.92s-8.1-1.37-10.65-3.96c-1.62-1.64-2.81-3.84-3.5-6.39-.04-.15-.08-.3-.1-.45,1.24-2.94,4.24-2.94,7.24-3.94-1-4-6-1-7.34-5.42.01-.16.05-.31.09-.46.68-2.75,1.96-5.11,3.79-6.91,2.48-2.41,6.12-3.74,10.33-3.74,4.64,0,8.28,1.58,10.62,4.72,1.15,1.48,1.76,2.81,2.23,4.93l-5.76,1.12c-.09.02-.17.03-.26.05.3-.27-.7-.27-1.14.22-.16.03-.25.05-.25.05Z"/>
    <path class="cls-1" d="M159.4,25.27c0,1.87.07,3.46.29,5.33h-7.85c.18-1.66.29-3.31.29-5.33v-4.26c0-.1,0-.2,0-.3,1.32-3.17,3.32-4.17,6.32-4.17-3-4-9-2-11.01-5.63-.06-.1-.12-.2-.18-.3l-3.41-5.61c-.65-1.12-1.44-2.3-2.88-4.36h9.11c.4,1.26.79,2.2,1.69,3.78l3.37,6.17c.04.08.08.15.12.22.19,5.73,1.19,5.73,1.01,0,.04-.07.08-.14.12-.22l3.37-6.14c.9-1.66,1.4-2.77,1.66-3.82h9.11c-1.04,1.51-2.41,3.56-2.88,4.36l-3.4,5.61c-.06.1-.12.2-.18.3-2.62,4.63,6.38,2.63,4.38,4.63-3,2-7,2-9.05,5.17,0,.1,0,.2,0,.3v4.26Z"/>
  </g>
</svg>